<svg xmlns="http://www.w3.org/2000/svg" xmlns:svg="http://www.w3.org/2000/svg" id="svg5" width="200" height="200" version="1.1" viewBox="0 0 52.917 52.917"><defs id="defs2"><clipPath id="clipPath48972" clipPathUnits="userSpaceOnUse"><path style="fill:#000;stroke-width:.280643" id="path48974" width="56.128" height="56.128" x="-18.925" y="-56.198" mask="none" transform="rotate(45.438374)"/></clipPath><mask id="mask49405" maskUnits="userSpaceOnUse"><text xml:space="preserve" style="font-size:60.8695px;line-height:1.25;font-family:Amiri;-inkscape-font-specification:Amiri;display:inline;stroke-width:1.52174" id="text49409" x="66.931" y="78.642" transform="scale(1.4861626,0.67287388)"><tspan id="tspan49407" style="font-style:normal;font-variant:normal;font-weight:400;font-stretch:normal;font-family:'Tw Cen MT';-inkscape-font-specification:'Tw Cen MT';fill:#fff;stroke-width:1.52174" x="66.931" y="78.642">A</tspan></text></mask><clipPath id="clipPath50306" clipPathUnits="userSpaceOnUse"><circle style="mix-blend-mode:normal;fill:#d40000;stroke-width:.176318" id="circle50308" cx="26.458" cy="26.458" r="26.458" clip-path="url(#clipPath48972)" transform="matrix(1.0038771,0,0.00391255,1.0073928,-0.04603368,-0.1228191)"/></clipPath><clipPath id="clipPath48972-7" clipPathUnits="userSpaceOnUse"><path style="fill:#000;stroke-width:.280643" id="path48974-5" width="56.128" height="56.128" x="-18.925" y="-56.198" mask="none" transform="rotate(45.438374)"/></clipPath><clipPath id="clipPath50306-6" clipPathUnits="userSpaceOnUse"><circle style="mix-blend-mode:normal;fill:#d40000;stroke-width:.176318" id="circle50308-5" cx="26.458" cy="26.458" r="26.458" clip-path="url(#clipPath48972)" transform="matrix(1.0038771,0,0.00391255,1.0073928,-0.04603368,-0.1228191)"/></clipPath><mask id="mask-powermask-path-effect51273" maskUnits="userSpaceOnUse"><path style="fill:#000" id="path51263" d="m 70.158247,37.490814 a 3.9464016,1.4616301 0 0 1 -0.0019,0.04543"/></mask><mask id="mask-powermask-path-effect51278" maskUnits="userSpaceOnUse"><path style="fill:#000" id="path51267"/></mask><mask id="mask-powermask-path-effect51283" maskUnits="userSpaceOnUse"><path style="fill:#000" id="path51271"/></mask><filter id="mask-powermask-path-effect51273_inverse" style="color-interpolation-filters:sRGB" width="100" height="100" x="-50" y="-50"><feColorMatrix id="mask-powermask-path-effect51273_primitive1" result="fbSourceGraphic" type="saturate" values="1"/><feColorMatrix id="mask-powermask-path-effect51273_primitive2" in="fbSourceGraphic" values="-1 0 0 0 1 0 -1 0 0 1 0 0 -1 0 1 0 0 0 1 0"/></filter></defs><g id="layer3" style="display:inline"><circle style="fill:#ff2a2a;stroke-width:.176318" id="path31-8" cx="26.458" cy="26.458" r="26.458"/></g><g id="layer1" style="display:inline"><ellipse style="fill:#000;stroke-width:.176146" id="path31" cx="26.458" cy="26.51" rx="26.458" ry="26.407"/><circle style="display:inline;fill:#fff;stroke-width:.176318" id="path31-89" cx="126.458" cy="26.458" r="26.458" mask="url(#mask49405)" transform="translate(-99.990036,0.02979629)"/></g><g id="layer2" style="display:inline"><rect style="fill:#fff;stroke-width:.328992" id="rect48998" width="26.097" height="6.062" x="13.255" y="41.263"/></g><g id="g48055" style="display:inline;mix-blend-mode:normal"><circle style="mix-blend-mode:normal;fill:#d40000;stroke-width:.176318" id="circle48752" cx="26.458" cy="26.458" r="26.458" clip-path="url(#clipPath48972)" transform="matrix(1.0038771,0,0.00391255,1.0073928,-0.04603368,-0.1228191)"/><ellipse style="display:inline;mix-blend-mode:normal;fill:#000;stroke-width:.43638" id="path50080" cx="26.361" cy="22.875" clip-path="url(#clipPath50306)" rx="16.736" ry="13.739"/><path style="fill:#000" id="path51325" d="m 20.901313,26.090099 a 4.1291056,7.6004772 0 0 1 -0.002,0.236231 l -4.127111,-0.236231 z"/><path style="fill:#d40000" id="path51717" d="m 33.532115,-19.511189 a 10.418671,9.5820541 0 0 1 -14.074736,0.09049 l 6.983663,-7.110726 z" transform="matrix(1,0,0.0048047,-0.99998846,0,0)"/><path style="fill:#fff;stroke-width:.276214" id="path52311" d="M 145.28835,50.354872 C 127.01317,34.62734 98.057144,30.012421 73.710372,38.947003 c -6.518003,2.391924 -14.288822,6.834002 -19.265958,11.01311 -1.198654,1.006465 -2.270358,1.829935 -2.381565,1.829935 -0.111206,0 -5.210052,-5.102002 -11.33077,-11.337781 L 29.603503,29.114489 30.822139,27.851613 c 0.670251,-0.69458 2.51592,-2.384634 4.101489,-3.755674 C 50.725112,10.43241 69.462577,2.3767456 90.736164,0.10085492 95.380582,-0.39601422 106.33043,-0.31105699 111.03786,0.25837091 133.04363,2.9202648 151.46536,11.26468 167.83762,25.986722 l 3.30701,2.97369 -2.29392,2.320103 c -1.26165,1.276057 -6.58213,6.517685 -11.82329,11.648065 l -9.52936,9.327957 z" transform="scale(0.26458333)"/><path style="fill:#fff;stroke-width:.276214" id="path52350" d="M 86.40648,86.72667 73.376068,73.416681 74.667403,72.441306 c 4.72517,-3.569034 10.347316,-6.07197 16.730552,-7.448313 4.112758,-0.886786 12.327485,-0.880604 16.463455,0.01239 6.55399,1.415066 12.32233,4.049211 17.21441,7.861065 l 1.05592,0.822759 -1.33214,1.364507 c -0.73267,0.750478 -6.73901,6.678655 -13.34742,13.173726 l -12.015288,11.80922 z" transform="scale(0.26458333)"/></g><g id="layer6"><path style="fill:#000" id="path50026" d="m 72.789178,34.677177 a 1.7174155,5.5907354 0 0 1 -8.3e-4,0.173766" mask="url(#mask-powermask-path-effect51273)"/><path style="fill:#fff;stroke-width:.276214" id="path52389" d="m 151.08883,181.46994 -2.76213,-2.60427 -48.802077,-0.009 -48.802075,-0.009 -2.292573,2.48592 c -1.260915,1.36726 -2.431589,2.48592 -2.601499,2.48592 -0.869396,0 -9.118995,-6.36599 -13.713669,-10.58246 l -2.688104,-2.46684 34.973647,-35.11455 c 19.235503,-19.313 35.0611,-35.11454 35.167986,-35.11454 0.106889,0 16.093094,15.82967 35.524894,35.17705 l 35.33055,35.17705 -2.48592,2.35505 c -3.08951,2.92687 -7.41515,6.40509 -11.09719,8.92319 -1.54594,1.05725 -2.85105,1.91728 -2.90024,1.9112 -0.0492,-0.006 -1.33242,-1.183 -2.8516,-2.61535 z m -38.4631,-38.32188 -13.050732,-13.05073 -13.050727,13.05073 -13.050725,13.05072 h 26.101452 26.101452 z" transform="scale(0.26458333)"/><path style="fill:#d40000;stroke-width:.276214" id="path52465" d="M 86.538548,86.634546 C 73.69451,73.514255 73.655832,73.471276 74.253912,72.984129 c 3.966911,-3.231117 10.195336,-6.133881 16.482252,-7.68157 2.339787,-0.576001 3.282272,-0.646986 8.700728,-0.655316 6.728828,-0.01035 8.365758,0.223077 13.326638,1.900338 4.59135,1.552325 7.8315,3.224336 11.49958,5.934101 l 1.61476,1.192897 -2.31005,2.336325 c -1.27053,1.284978 -7.22284,7.16236 -13.22736,13.060849 L 99.423152,99.796276 Z" transform="scale(0.26458333)"/><path style="fill:#d40000;stroke-width:.276214" id="path52504" d="M 145.01213,49.92143 C 129.67534,37.157691 107.61173,31.765107 86.040533,35.508132 73.800823,37.631961 63.910278,42.259414 52.74134,51.087703 l -0.683951,0.540616 -1.950068,-1.921684 C 49.034784,48.649709 44.035189,43.574887 38.997108,38.429251 l -9.160146,-9.355699 2.40156,-2.290793 C 39.310252,20.037198 49.728886,13.01193 58.630455,8.9867218 78.42597,0.03536962 99.380149,-2.3494504 120.42912,1.9533417 138.21485,5.5890676 153.70529,13.558756 168.1679,26.51451 l 2.71597,2.432989 -2.99218,3.016385 c -1.6457,1.65901 -6.90751,6.843636 -11.69291,11.521393 l -8.70072,8.505009 z" transform="scale(0.26458333)"/></g></svg>