<svg xmlns="http://www.w3.org/2000/svg" xmlns:svg="http://www.w3.org/2000/svg" id="svg5" width="200" height="200" version="1.1" viewBox="0 0 52.917 52.917"><defs id="defs2"><clipPath id="clipPath48972" clipPathUnits="userSpaceOnUse"><path style="fill:#000;stroke-width:.280643" id="path48974" width="56.128" height="56.128" x="-18.925" y="-56.198" mask="none" transform="rotate(45.438374)"/></clipPath><mask id="mask49405" maskUnits="userSpaceOnUse"><text xml:space="preserve" style="font-size:60.8695px;line-height:1.25;font-family:Amiri;-inkscape-font-specification:Amiri;display:inline;stroke-width:1.52174" id="text49409" x="66.931" y="78.642" transform="scale(1.4861626,0.67287388)"><tspan id="tspan49407" style="font-style:normal;font-variant:normal;font-weight:400;font-stretch:normal;font-family:'Tw Cen MT';-inkscape-font-specification:'Tw Cen MT';fill:#fff;stroke-width:1.52174" x="66.931" y="78.642">A</tspan></text></mask><clipPath id="clipPath50306" clipPathUnits="userSpaceOnUse"><circle style="mix-blend-mode:normal;fill:#d40000;stroke-width:.176318" id="circle50308" cx="26.458" cy="26.458" r="26.458" clip-path="url(#clipPath48972)" transform="matrix(1.0038771,0,0.00391255,1.0073928,-0.04603368,-0.1228191)"/></clipPath><clipPath id="clipPath48972-7" clipPathUnits="userSpaceOnUse"><path style="fill:#000;stroke-width:.280643" id="path48974-5" width="56.128" height="56.128" x="-18.925" y="-56.198" mask="none" transform="rotate(45.438374)"/></clipPath><clipPath id="clipPath50306-6" clipPathUnits="userSpaceOnUse"><circle style="mix-blend-mode:normal;fill:#d40000;stroke-width:.176318" id="circle50308-5" cx="26.458" cy="26.458" r="26.458" clip-path="url(#clipPath48972)" transform="matrix(1.0038771,0,0.00391255,1.0073928,-0.04603368,-0.1228191)"/></clipPath><mask id="mask-powermask-path-effect51273" maskUnits="userSpaceOnUse"><path id="mask-powermask-path-effect51273_box" style="fill:#fff;fill-opacity:1" d="m 71.788348,33.677177 h 2.00083 v 2.173766 h -2.00083 z"/><path style="fill:#000" id="path51263" d="m 70.158247,37.490814 a 3.9464016,1.4616301 0 0 1 -0.0019,0.04543"/></mask><mask id="mask-powermask-path-effect51278" maskUnits="userSpaceOnUse"><path style="fill:#000" id="path51267"/></mask><mask id="mask-powermask-path-effect51283" maskUnits="userSpaceOnUse"><path style="fill:#000" id="path51271"/></mask><filter id="mask-powermask-path-effect51273_inverse" style="color-interpolation-filters:sRGB" width="100" height="100" x="-50" y="-50"><feColorMatrix id="mask-powermask-path-effect51273_primitive1" result="fbSourceGraphic" type="saturate" values="1"/><feColorMatrix id="mask-powermask-path-effect51273_primitive2" in="fbSourceGraphic" values="-1 0 0 0 1 0 -1 0 0 1 0 0 -1 0 1 0 0 0 1 0"/></filter></defs><g id="layer3" style="display:none"><circle style="fill:#ff2a2a;stroke-width:.176318" id="path31-8" cx="26.458" cy="26.458" r="26.458"/></g><g id="layer1" style="display:inline"><ellipse style="fill:#000;stroke-width:.176146" id="path31" cx="26.458" cy="26.51" rx="26.458" ry="26.407"/></g><g id="layer2" style="display:none"><rect style="fill:#fff;stroke-width:.328992" id="rect48998" width="26.097" height="6.062" x="13.255" y="41.263"/></g><g id="g48055" style="display:none;mix-blend-mode:normal"><circle style="mix-blend-mode:normal;fill:#d40000;stroke-width:.176318" id="circle48752" cx="26.458" cy="26.458" r="26.458" clip-path="url(#clipPath48972)" transform="matrix(1.0038771,0,0.00391255,1.0073928,-0.04603368,-0.1228191)"/><ellipse style="display:inline;mix-blend-mode:normal;fill:#000;stroke-width:.43638" id="path50080" cx="26.361" cy="22.875" clip-path="url(#clipPath50306)" rx="16.736" ry="13.739" transform="translate(0,0.09980904)"/><path style="fill:#000" id="path51325" d="m 20.901313,26.090099 a 4.1291056,7.6004772 0 0 1 -0.002,0.236231 l -4.127111,-0.236231 z"/><path style="fill:#d40000" id="path51717" d="m 33.532115,-19.511189 a 10.418671,9.5820541 0 0 1 -14.074736,0.09049 l 6.983663,-7.110726 z" transform="matrix(1,0,0.0048047,-0.99998846,0,0)"/><path style="fill:#fff;stroke-width:.276214" id="path52311" d="M 145.28835,50.354872 C 127.01317,34.62734 98.057144,30.012421 73.710372,38.947003 c -6.518003,2.391924 -14.288822,6.834002 -19.265958,11.01311 -1.198654,1.006465 -2.270358,1.829935 -2.381565,1.829935 -0.111206,0 -5.210052,-5.102002 -11.33077,-11.337781 L 29.603503,29.114489 30.822139,27.851613 c 0.670251,-0.69458 2.51592,-2.384634 4.101489,-3.755674 C 50.725112,10.43241 69.462577,2.3767456 90.736164,0.10085492 95.380582,-0.39601422 106.33043,-0.31105699 111.03786,0.25837091 133.04363,2.9202648 151.46536,11.26468 167.83762,25.986722 l 3.30701,2.97369 -2.29392,2.320103 c -1.26165,1.276057 -6.58213,6.517685 -11.82329,11.648065 l -9.52936,9.327957 z" transform="scale(0.26458333)"/><path style="fill:#fff;stroke-width:.276214" id="path52350" d="M 86.538548,86.634546 74.145111,73.25799 74.899337,72.758689 c 4.93766,-3.268754 10.138703,-6.508578 16.602198,-7.437693 5.484021,-0.788317 12.228205,-0.984814 16.377135,-0.09119 6.77689,1.459652 11.87156,4.340971 17.02452,7.792011 l 0.97468,0.652765 -1.37124,1.269268 c -0.86863,0.804036 -6.82647,6.676301 -13.34742,13.259175 L 99.423152,99.796276 Z" transform="scale(0.26458333)"/></g><g id="layer6" style="display:inline"><path style="fill:#000" id="path50026" d="m 72.789178,34.677177 a 1.7174155,5.5907354 0 0 1 -8.3e-4,0.173766" mask="url(#mask-powermask-path-effect51273)"/><path style="fill:#d40000;stroke-width:.276214" id="path52465" d="M 86.416478,86.793237 C 73.427951,73.815968 73.387119,73.801376 73.387119,73.801376 c 3.874197,-3.341721 11.025508,-6.981646 17.312424,-8.529335 2.339787,-0.576001 4.881362,-1.25628 8.810591,-1.259564 4.438736,-0.0037 8.292516,0.857843 13.253396,2.535104 4.59135,1.552325 7.8315,3.224336 11.49958,5.934101 l 1.61476,1.192897 -2.31005,2.336325 c -1.27053,1.284978 -7.22284,7.16236 -13.22736,13.060849 L 99.423152,99.796276 C 95.128284,95.409033 87.282899,87.658907 86.416478,86.793237 Z" transform="scale(0.26458333)"/><path style="fill:#d40000;stroke-width:.074168" id="path52504" d="M 38.412677,13.39572 C 34.322163,9.945267 28.437517,8.4874766 22.684204,9.4993379 19.419721,10.073478 16.752307,11.410793 13.835187,13.872492 l -0.14691,0.126732 -0.587936,-0.661605 c -0.268568,-0.30222 -1.619514,-1.65761 -2.963235,-3.048642 L 7.7265561,7.8632145 7.9975963,7.5868118 C 9.8344314,5.713635 13.005888,3.476019 15.380049,2.3878744 20.659765,-0.03196726 26.24205,-0.73479764 31.856076,0.42838695 36.599757,1.4112419 40.746004,3.5106537 44.46876,7.1557672 l 0.709881,0.6950753 -0.663694,0.69037 C 44.080041,8.9935983 42.672626,10.391271 41.3963,11.655819 L 39.075708,13.955 Z"/><rect style="fill:#fff;stroke-width:.270734" id="rect9599" width="8.068" height="21.177" x="22.265" y="30.579"/><path style="fill:#fff;fill-opacity:1;stroke-width:.353553" id="path13796" d="m 86.613132,86.61313 -12.851203,-12.854821 0.86086,-0.706098 c 1.692083,-1.387887 6.387757,-3.998693 9.623614,-5.350752 7.33291,-3.063958 14.480764,-4.12547 20.582177,-3.056613 3.69356,0.647044 9.99695,2.663626 13.06868,4.180934 2.21267,1.092967 7.61419,4.559526 7.61419,4.886591 0,0.102465 -5.8606,5.939388 -13.02356,12.97094 L 99.464335,99.467952 Z" transform="scale(0.26458333)"/><path style="fill:#fff;fill-opacity:1;stroke-width:.353553" id="path13835" d="M 40.562149,41.010783 29.328726,29.577286 33.137528,26.202177 C 50.057066,11.209199 68.487351,2.8161465 89.979339,0.31672328 96.591211,-0.45220831 108.48969,-0.19409453 115.05495,0.86068879 135.48174,4.1424805 152.54396,12.522653 167.06663,26.406419 l 3.39168,3.242463 -11.39113,11.395174 -11.39113,11.395178 -2.86219,-2.330889 C 131.23238,39.047901 112.18782,33.324108 93.81593,34.781043 78.86759,35.966481 67.456828,40.362971 55.747418,49.448575 54.209095,50.642196 52.690616,51.804531 52.37302,52.031537 51.87959,52.384228 50.161133,50.780729 40.562149,41.010783 Z" transform="scale(0.26458333)"/></g></svg>